PathFileType	4	(X/Y/Z)	/Users/itak/Documents/Research/Walk-IL/dataset/trc/00510_00183.trc
DataRate	CameraRate	NumFrames	NumMarkers	Units	OrigDataRate	OrigDataStartFrame	OrigNumFrames
100.000000	100.000000	4	53	mm	100.000000	286	382
Frame#	Time	RPSI			LPSI			L3			STRN			T10			C7			CLAV			RBAK			LBAK			LSHO			LUPA			LAEL			LAOL			LWTS			LWPS			LFRA			LIFD			LHPS			LHTS			RSHO			RUPA			RAEL			RAOL			RWTS			RWPS			RFRA			RIFD			RHTS			RBHD			LFHD			RFHD			LBHD			LHIP			RHIP			RASI			LASI			LKNE			LTHI			LANK			LTIP			LTOE			LMT1			LMT5			LHEE			RKNE			RTHI			RANK			RTIP			RTOE			RMT1			RMT5			RHEE			RHPS			
		X1	Y1	Z1	X2	Y2	Z2	X3	Y3	Z3	X4	Y4	Z4	X5	Y5	Z5	X6	Y6	Z6	X7	Y7	Z7	X8	Y8	Z8	X9	Y9	Z9	X10	Y10	Z10	X11	Y11	Z11	X12	Y12	Z12	X13	Y13	Z13	X14	Y14	Z14	X15	Y15	Z15	X16	Y16	Z16	X17	Y17	Z17	X18	Y18	Z18	X19	Y19	Z19	X20	Y20	Z20	X21	Y21	Z21	X22	Y22	Z22	X23	Y23	Z23	X24	Y24	Z24	X25	Y25	Z25	X26	Y26	Z26	X27	Y27	Z27	X28	Y28	Z28	X29	Y29	Z29	X30	Y30	Z30	X31	Y31	Z31	X32	Y32	Z32	X33	Y33	Z33	X34	Y34	Z34	X35	Y35	Z35	X36	Y36	Z36	X37	Y37	Z37	X38	Y38	Z38	X39	Y39	Z39	X40	Y40	Z40	X41	Y41	Z41	X42	Y42	Z42	X43	Y43	Z43	X44	Y44	Z44	X45	Y45	Z45	X46	Y46	Z46	X47	Y47	Z47	X48	Y48	Z48	X49	Y49	Z49	X50	Y50	Z50	X51	Y51	Z51	X52	Y52	Z52	X53	Y53	Z53	

287	2.86	1027.018676757812	937.8899536132812	823.3143920898438	1113.554809570312	943.6517333984375	735.1953735351562	1074.412475585938	1022.235290527344	775.6884765625	1238.197387695312	1190.566528320312	926.1519775390625	1064.066772460938	1126.380004882812	773.193359375	1091.319458007812	1357.581787109375	802.610107421875	1208.53662109375	1284.985229492188	902.548828125	1000.1494140625	1235.247680664062	834.1660766601562	1129.861694335938	1302.877197265625	720.7568969726562	1247.769409179688	1351.516845703125	726.7784423828125	1282.222778320312	1226.909423828125	672.051025390625	1313.32470703125	1040.50537109375	673.0031127929688	1221.50634765625	1000.432373046875	660.0213623046875	1390.664916992188	997.039306640625	859.3095703125	1400.368041992188	908.2269287109375	828.7009887695312	1348.681030273438	1005.255432128906	722.0714111328125	1417.860717773438	904.8382568359375	979.6351318359375	1425.10302734375	893.8709106445312	878.9049072265625	1434.645385742188	951.0650024414062	910.3289184570312	1034.270874023438	1350.794067382812	949.88525390625	979.5975952148438	1286.902099609375	973.9063720703125	918.8736572265625	1025.439575195312	981.8340454101562	913.8721923828125	1008.525329589844	917.8585205078125	1047.8525390625	866.5364990234375	1063.538818359375	967.802490234375	825.5147094726562	1056.282470703125	920.5364379882812	973.5044555664062	993.3236083984375	1074.580810546875	718.520263671875	1114.099365234375	1056.959350585938	787.02294921875	1118.4228515625	1056.052856445312	1503.739013671875	880.8363037109375	1232.522705078125	1588.922607421875	839.4021606445312	1150.009521484375	1587.675537109375	935.9090576171875	1148.971557617188	1497.11328125	751.4165649414062	1287.508666992188	884.2455444335938	719.1641235351562	1027.78857421875	846.2611083984375	992.6243286132812	1137.152954101562	906.677001953125	1008.370544433594	1299.501586914062	926.2565307617188	829.799560546875	1320.877685546875	469.5383605957031	825.1724243164062	1327.165771484375	626.9931030273438	790.1876831054688	1220.869262695312	44.16172790527344	735.2063598632812	1299.329345703125	317.2046813964844	797.072021484375	1332.642211914062	25.43701171875	906.7193603515625	1252.043579101562	32.55532455444336	881.6790161132812	1311.393432617188	31.45399856567383	797.203369140625	1145.569458007812	35.248779296875	747.6061401367188	1156.17333984375	476.899658203125	1019.371459960938	1077.89794921875	735.6707763671875	1034.129028320312	1111.23193359375	44.64597702026367	979.1602172851562	1176.266967773438	333.7049255371094	1025.020874023438	1302.728149414062	27.46026992797852	1050.470581054688	1265.738891601562	33.36268615722656	983.0165405273438	1198.25537109375	35.70091247558594	1052.365356445312	1091.1416015625	36.29884719848633	911.4728393554688	993.4577026367188	766.0054931640625	1093.152954101562	
288	2.87	1030.38232421875	937.7401123046875	829.2747192382812	1116.239990234375	943.5646362304688	740.36669921875	1077.392578125	1022.074645996094	781.2131958007812	1242.06494140625	1190.758178710938	929.6801147460938	1066.935791015625	1126.238525390625	778.3909301757812	1094.26220703125	1357.59423828125	806.9003295898438	1212.223754882812	1285.10400390625	906.1365966796875	1003.33203125	1235.181640625	839.5331420898438	1132.051147460938	1302.621704101562	724.9781494140625	1250.13427734375	1351.2001953125	729.86474609375	1283.859497070312	1226.595458984375	674.7456665039062	1314.507568359375	1039.546630859375	674.9255981445312	1222.219604492188	1000.494873046875	662.1175537109375	1392.005859375	993.1818237304688	860.7677001953125	1401.16796875	905.0140991210938	828.2468872070312	1349.72802734375	1003.360961914062	723.5361328125	1418.991455078125	897.6836547851562	978.7826538085938	1425.910034179688	889.4093017578125	877.9558715820312	1435.832275390625	945.7525024414062	910.7373046875	1038.217407226562	1351.024291992188	954.6635131835938	983.8197021484375	1287.025146484375	979.1480102539062	923.5927734375	1025.467651367188	988.847900390625	917.7723999023438	1008.50390625	924.9857788085938	1053.4638671875	866.6305541992188	1068.891723632812	973.2489624023438	825.749755859375	1062.98291015625	925.3450927734375	973.4468383789062	1000.361633300781	1081.015991210938	718.362548828125	1118.289672851562	1063.501342773438	786.78564453125	1123.248046875	1059.407592773438	1503.869873046875	884.8618774414062	1235.8720703125	1589.013793945312	843.2313842773438	1153.428466796875	1587.849853515625	939.7727661132812	1152.23974609375	1497.168334960938	755.3842163085938	1290.207275390625	884.3775024414062	722.5254516601562	1032.861572265625	846.2642822265625	998.5031127929688	1142.539916992188	906.4659423828125	1012.914672851562	1303.747192382812	926.681884765625	833.4954833984375	1321.265625	468.9003601074219	825.2782592773438	1329.0615234375	626.599609375	791.8690795898438	1220.265258789062	43.93669509887695	735.5633544921875	1299.026733398438	316.7132568359375	796.9158325195312	1332.574584960938	25.45114135742188	906.7022094726562	1251.830932617188	32.36514282226562	881.8839111328125	1311.0830078125	31.63220024108887	797.3690795898438	1144.901123046875	34.75457763671875	748.2172241210938	1158.62060546875	476.0475769042969	1021.417114257812	1082.88818359375	735.4119262695312	1038.508544921875	1111.637451171875	44.63078308105469	978.3812866210938	1178.3134765625	332.4698486328125	1025.890258789062	1302.81103515625	27.02681732177734	1050.491333007812	1265.975341796875	32.70668792724609	982.8055419921875	1198.330810546875	35.62484741210938	1051.943115234375	1091.818725585938	36.03744506835938	910.5391845703125	999.5003051757812	765.8712768554688	1099.042602539062	
289	2.88	1033.627319335938	937.6949462890625	834.9234008789062	1118.852294921875	943.5018310546875	745.2890014648438	1080.2353515625	1021.9482421875	786.44140625	1245.796997070312	1190.885009765625	933.1541748046875	1069.704223632812	1126.152221679688	783.3733520507812	1097.173828125	1357.61083984375	811.1443481445312	1215.813110351562	1285.173828125	909.6744995117188	1006.445434570312	1235.1328125	844.7841186523438	1134.220703125	1302.399169921875	729.16015625	1252.502807617188	1350.850952148438	732.9464111328125	1285.390502929688	1226.219604492188	677.441650390625	1315.407592773438	1038.58984375	676.7728271484375	1222.632446289062	1000.539367675781	664.2628784179688	1393.168212890625	989.3080444335938	861.98828125	1402.027465820312	901.9188842773438	827.4307861328125	1350.529052734375	1001.475036621094	724.8375854492188	1420.560913085938	890.6209716796875	977.3890991210938	1426.973266601562	885.1295166015625	876.5304565429688	1437.148315429688	940.5984497070312	910.6716918945312	1042.11083984375	1351.239501953125	959.3590698242188	987.973876953125	1287.145141601562	984.3057250976562	928.409912109375	1025.459594726562	995.876220703125	921.7274169921875	1008.414733886719	932.1599731445312	1059.278076171875	866.7786865234375	1074.216064453125	978.9251708984375	826.0988159179688	1069.858520507812	930.2684936523438	973.387939453125	1007.457092285156	1087.634521484375	718.2486572265625	1122.42919921875	1070.302490234375	786.5963745117188	1128.041137695312	1062.7373046875	1503.928588867188	888.8577880859375	1239.183715820312	1589.078857421875	847.0179443359375	1156.829833984375	1587.993530273438	943.5906982421875	1155.474609375	1497.15869140625	759.3296508789062	1292.802978515625	884.5016479492188	725.8102416992188	1037.696044921875	846.4135131835938	1004.112854003906	1147.617919921875	906.3287353515625	1017.287292480469	1307.750122070312	927.0648803710938	837.1025390625	1321.3779296875	468.3252258300781	825.3174438476562	1330.776123046875	626.2281494140625	793.5546875	1219.591552734375	43.6988410949707	735.9507446289062	1298.583740234375	316.2415771484375	796.7274780273438	1332.506713867188	25.4615535736084	906.6944580078125	1251.601928710938	32.15573883056641	882.0984497070312	1310.72265625	31.83551979064941	797.5608520507812	1144.17138671875	34.21335983276367	748.9002685546875	1161.061401367188	475.4356079101562	1023.602111816406	1087.567626953125	735.2274780273438	1042.715209960938	1111.990234375	44.67167282104492	977.8146362304688	1180.222045898438	331.4535217285156	1026.946044921875	1302.885620117188	26.84005546569824	1050.57275390625	1266.184692382812	32.30943298339844	982.6973266601562	1198.400512695312	35.60402679443359	1051.675537109375	1092.400634765625	35.89630508422852	909.8132934570312	1005.773803710938	765.800048828125	1104.998901367188	
290	2.89	1036.783081054688	937.8171997070312	840.23974609375	1121.422241210938	943.5269775390625	749.9515991210938	1082.958251953125	1021.897277832031	791.3546752929688	1249.407592773438	1190.974853515625	936.5592651367188	1072.359008789062	1126.14794921875	788.1355590820312	1100.059326171875	1357.664794921875	815.332763671875	1219.309936523438	1285.2255859375	913.1522827148438	1009.492980957031	1235.133666992188	849.9185791015625	1136.376220703125	1302.254638671875	733.2933959960938	1254.866943359375	1350.520874023438	736.0189819335938	1286.80615234375	1225.84619140625	680.1163330078125	1316.021850585938	1037.706298828125	678.533203125	1222.75244140625	1000.639282226562	666.4446411132812	1394.104370117188	985.4988403320312	863.0001220703125	1402.910766601562	899.0252685546875	826.2919921875	1351.078735351562	999.6734619140625	725.9837036132812	1422.600708007812	883.7821655273438	975.49365234375	1428.275268554688	881.1377563476562	874.663330078125	1438.556884765625	935.7142944335938	910.1611328125	1045.970947265625	1351.471435546875	963.9739379882812	992.0733642578125	1287.297729492188	989.3861694335938	933.3054809570312	1025.465698242188	1002.853698730469	925.73388671875	1008.301635742188	939.3099975585938	1065.244384765625	867.0239868164062	1079.485961914062	984.7977294921875	826.5914916992188	1076.832275390625	935.2820434570312	973.3853759765625	1014.537353515625	1094.3935546875	718.2296752929688	1126.503540039062	1077.29052734375	786.5109252929688	1132.783813476562	1066.040893554688	1503.943725585938	892.81689453125	1242.451416015625	1589.139892578125	850.7636108398438	1160.211791992188	1588.116577148438	947.3634643554688	1158.667236328125	1497.123046875	763.23779296875	1295.303100585938	884.63427734375	729.021728515625	1042.2890625	846.7003173828125	1009.40673828125	1152.381225585938	906.276611328125	1021.5	1311.455322265625	927.329833984375	840.5219116210938	1321.296264648438	467.8389282226562	825.298828125	1332.322631835938	625.8998413085938	795.2042236328125	1218.872436523438	43.46689605712891	736.359375	1298.06787109375	315.8238220214844	796.510009765625	1332.449096679688	25.47064971923828	906.6986694335938	1251.384643554688	31.95733070373535	882.3164672851562	1310.33203125	32.05745315551758	797.7666625976562	1143.425048828125	33.67536544799805	749.6314697265625	1163.451904296875	475.0294189453125	1025.937622070312	1091.931640625	735.1282958984375	1046.76171875	1112.239013671875	44.73203277587891	977.4849243164062	1181.9599609375	330.6358642578125	1028.199340820312	1302.947998046875	26.80060195922852	1050.674194335938	1266.335083007812	32.12512588500977	982.6812744140625	1198.455078125	35.58382415771484	1051.556640625	1092.819091796875	35.87955474853516	909.3580932617188	1012.263305664062	765.8682861328125	1110.998779296875	
